<svg width="27" height="30" viewBox="0 0 27 30" fill="none" xmlns="http://www.w3.org/2000/svg">
<path d="M0 7.03092C0.0235735 7.09279 0.0533944 7.15209 0.089 7.20792C4.31567 11.4319 8.543 15.6552 12.771 19.8779C12.8218 19.9483 12.889 20.0052 12.9668 20.0438C13.0445 20.0823 13.1305 20.1014 13.2173 20.0992C13.3041 20.097 13.389 20.0737 13.4648 20.0313C13.5405 19.989 13.6048 19.9287 13.652 19.8559C14.772 18.7099 15.913 17.5849 17.052 16.4559C17.688 15.8219 18.329 15.1929 18.942 14.5869C18.7545 14.2028 18.4441 13.8923 18.06 13.7046C17.676 13.5169 17.2403 13.4628 16.822 13.5509C16.622 13.5869 16.399 13.5189 16.203 13.5659C15.9564 13.6069 15.7234 13.7071 15.524 13.8579C14.915 14.4199 14.342 15.0219 13.755 15.6079C13.246 16.1149 13.155 16.1159 12.634 15.5969C9.91 12.8776 7.188 10.1586 4.468 7.43992C4.353 7.32592 4.251 7.19892 4.131 7.06392C5.455 5.74192 6.742 4.44392 8.05 3.16392C8.22066 3.0295 8.43283 2.95878 8.65 2.96392C11.666 2.95192 14.683 2.94792 17.699 2.97092C17.9871 2.98677 18.2608 3.10237 18.473 3.29792C19.626 4.40991 20.75 5.55292 21.881 6.68691C22.008 6.81391 22.121 6.95591 22.311 7.17092L20.042 9.41292L22.031 11.3129L26.341 7.01792C26.316 6.98551 26.2893 6.95446 26.261 6.92492C24.061 4.70392 21.861 2.47792 19.638 0.271915C19.4398 0.113132 19.1919 0.0292251 18.938 0.0349152C15.375 0.0179152 11.811 0.0549152 8.249 -8.4836e-05C7.84556 -0.0577757 7.43402 -0.00339772 7.05941 0.1571C6.68479 0.317598 6.36154 0.578034 6.125 0.909915C5.91047 1.17294 5.67249 1.41594 5.414 1.63592L0 7.03092Z" fill="white"/>
<path d="M7.93961 9.90381C8.89061 10.8488 9.71461 11.6958 10.5766 12.5038C10.7934 12.693 11.0681 12.8027 11.3556 12.8148C13.2966 12.8418 15.2396 12.8728 17.1796 12.8148C17.5381 12.7855 17.8983 12.8422 18.2304 12.9804C18.5624 13.1185 18.8567 13.3339 19.0886 13.6088C20.1446 14.7528 21.2886 15.8218 22.3616 16.8938L13.4766 25.8268L4.52361 16.8448L6.60761 14.8918L4.59761 12.8448L0.474609 16.9448L13.4206 29.9538L26.4656 16.8538C26.4906 16.9238 26.4896 16.9018 26.4776 16.8908C24.2363 14.6281 21.9929 12.3675 19.7476 10.1088C19.6298 9.99383 19.4748 9.92468 19.3106 9.9138C15.5796 9.9028 11.8486 9.90581 7.93961 9.90581" fill="white"/>
<path d="M0 7.03082L5.413 1.63682C5.67184 1.4169 5.91015 1.1739 6.125 0.910823C6.36141 0.578759 6.68462 0.318126 7.05924 0.157449C7.43386 -0.00322938 7.84546 -0.0577606 8.249 -0.00017719C11.811 0.0548228 15.375 0.0168228 18.938 0.0308228C19.1919 0.0251328 19.4398 0.109039 19.638 0.267823C21.857 2.47382 24.057 4.69982 26.261 6.92082C26.2893 6.95037 26.316 6.98142 26.341 7.01382L22.031 11.3088L20.042 9.40882L22.312 7.16982C22.122 6.95482 22.012 6.81382 21.882 6.68582C20.751 5.55182 19.627 4.40982 18.474 3.29982C18.2622 3.10319 17.9885 2.9865 17.7 2.96982C14.684 2.94682 11.667 2.95082 8.651 2.96282C8.43383 2.95769 8.22166 3.02841 8.051 3.16282C6.743 4.43982 5.451 5.73782 4.132 7.06282C4.252 7.19782 4.354 7.32482 4.469 7.43882C7.189 10.1575 9.91 12.8755 12.632 15.5928C13.152 16.1118 13.244 16.1118 13.753 15.6038C14.34 15.0178 14.913 14.4168 15.522 13.8538C15.7214 13.703 15.9544 13.6028 16.201 13.5618C16.401 13.5148 16.619 13.5828 16.82 13.5468C17.2383 13.4587 17.674 13.5128 18.058 13.7005C18.4421 13.8882 18.7525 14.1987 18.94 14.5828C18.327 15.1888 17.686 15.8178 17.05 16.4518C15.915 17.5828 14.774 18.7088 13.65 19.8518C13.6028 19.9246 13.5385 19.9849 13.4628 20.0273C13.387 20.0696 13.3021 20.0929 13.2153 20.0951C13.1285 20.0973 13.0425 20.0782 12.9648 20.0397C12.887 20.0011 12.8198 19.9442 12.769 19.8738C8.54167 15.6538 4.315 11.4318 0.089 7.20782C0.0533944 7.152 0.0235735 7.09269 0 7.03082Z" fill="white"/>
<path d="M7.93961 9.90393C11.8486 9.90393 15.5796 9.90393 19.3106 9.91193C19.4748 9.9228 19.6298 9.99195 19.7476 10.1069C21.9963 12.3623 24.2396 14.6229 26.4776 16.8889C26.4886 16.9009 26.4906 16.9219 26.4656 16.8519L13.4206 29.9539L0.474609 16.9409L4.59761 12.8409L6.60761 14.8879L4.52361 16.8449L13.4766 25.8219L22.3616 16.8889C21.2886 15.8169 20.1446 14.7489 19.0886 13.6039C18.8567 13.3291 18.5624 13.1136 18.2304 12.9755C17.8983 12.8374 17.5381 12.7806 17.1796 12.8099C15.2406 12.8709 13.2976 12.8399 11.3556 12.8099C11.0681 12.7978 10.7934 12.6881 10.5766 12.4989C9.71561 11.6919 8.89161 10.8449 7.93961 9.89893" fill="white"/>
</svg>
