<svg width="20" height="20" viewBox="0 0 20 20" fill="none" xmlns="http://www.w3.org/2000/svg">
<g clip-path="url(#clip0_0_147)">
<path d="M8.94857 12.3893L6.88151 14.4564C7.19726 15.0586 7.22982 15.6576 6.89779 15.9896L3.125 19.7624C2.64974 20.2376 1.61458 19.9772 0.820312 19.1797C0.0227852 18.3822 -0.237631 17.3503 0.237629 16.875L4.00716 13.1022C4.34245 12.7702 4.94141 12.8027 5.54362 13.1152L7.61068 11.0514L8.94857 12.3893ZM12.9167 0C16.8294 0 20 3.17057 20 7.08333C20 10.9961 16.8294 14.1667 12.9167 14.1667C9.00391 14.1667 5.83333 10.9961 5.83333 7.08333C5.83333 3.17057 9.00391 0 12.9167 0ZM12.9167 12.5C15.9082 12.5 18.3333 10.0749 18.3333 7.08333C18.3333 4.0918 15.9082 1.66667 12.9167 1.66667C9.92513 1.66667 7.5 4.0918 7.5 7.08333C7.5 10.0749 9.92513 12.5 12.9167 12.5Z" fill="#777777"/>
</g>
<defs>
<clipPath id="clip0_0_147">
<rect width="20" height="20" fill="white" transform="matrix(-1 0 0 1 20 0)"/>
</clipPath>
</defs>
</svg>
