<svg width="20" height="20" viewBox="0 0 20 20" fill="none" xmlns="http://www.w3.org/2000/svg">
<g clip-path="url(#clip0_14_2442)">
<path d="M7.50033 18.3334H12.5003C16.667 18.3334 18.3337 16.6667 18.3337 12.5001V7.50008C18.3337 3.33341 16.667 1.66675 12.5003 1.66675H7.50033C3.33366 1.66675 1.66699 3.33341 1.66699 7.50008V12.5001C1.66699 16.6667 3.33366 18.3334 7.50033 18.3334Z" stroke="#0B210A" stroke-width="1.5" stroke-linecap="round" stroke-linejoin="round"/>
<path d="M9.99967 12.9166C10.3827 12.9166 10.762 12.8411 11.1158 12.6946C11.4697 12.548 11.7912 12.3332 12.0621 12.0623C12.3329 11.7915 12.5477 11.4699 12.6943 11.1161C12.8409 10.7622 12.9163 10.3829 12.9163 9.99992C12.9163 9.6169 12.8409 9.23763 12.6943 8.88376C12.5477 8.52989 12.3329 8.20836 12.0621 7.93752C11.7912 7.66669 11.4697 7.45185 11.1158 7.30527C10.762 7.15869 10.3827 7.08325 9.99967 7.08325C9.22613 7.08325 8.48426 7.39054 7.93728 7.93752C7.3903 8.48451 7.08301 9.22637 7.08301 9.99992C7.08301 10.7735 7.3903 11.5153 7.93728 12.0623C8.48426 12.6093 9.22613 12.9166 9.99967 12.9166Z" stroke="#0B210A" stroke-width="1.5" stroke-linecap="round" stroke-linejoin="round"/>
<path d="M14.6963 5.83325H14.7063" stroke="#0B210A" stroke-width="2" stroke-linecap="round" stroke-linejoin="round"/>
</g>
<defs>
<clipPath id="clip0_14_2442">
<rect width="20" height="20" fill="white"/>
</clipPath>
</defs>
</svg>
