<svg width="20" height="20" viewBox="0 0 20 20" fill="none" xmlns="http://www.w3.org/2000/svg">
<path d="M4.58377 1.66675H3.41711C2.58377 1.66675 2.16711 2.58341 2.75044 3.16675L7.50044 7.91675C8.83377 9.25008 11.0838 9.25008 12.4171 7.91675L17.1671 3.16675C17.8338 2.58341 17.4171 1.66675 16.5838 1.66675H15.4171C14.7504 1.66675 14.0838 1.91675 13.5838 2.41675L10.5838 5.41675C10.2504 5.75008 9.66711 5.75008 9.33377 5.41675L6.41711 2.41675C5.91711 1.91675 5.25044 1.66675 4.58377 1.66675ZM4.58377 18.3334H3.41711C2.66711 18.3334 2.25044 17.4167 2.83377 16.8334L7.50044 12.0834C8.83377 10.7501 11.0838 10.7501 12.4171 12.0834L17.1671 16.8334C17.7504 17.4167 17.3338 18.3334 16.5838 18.3334H15.4171C14.7504 18.3334 14.0838 18.0834 13.5838 17.5834L10.5838 14.5834C10.2504 14.2501 9.66711 14.2501 9.33377 14.5834L6.33377 17.5834C5.91711 18.0001 5.25044 18.3334 4.58377 18.3334Z" stroke="black" stroke-width="1.5" stroke-miterlimit="10" stroke-linecap="round" stroke-linejoin="round"/>
</svg>
